#!OML:ASF H:\Terrain\Patient Classification 1\Takeo\Monday\TakeoMonday.ASF
:FULLY-SPECIFIED
:DEGREES
751
root 18.255 15.9512 -3.21381 -150.099 -72.8228 153.946
lowerback 16.7757 -1.30935 0.578895
upperback 10.0553 -2.45595 -0.236839
thorax 1.28844 -1.53421 -0.209046
lowerneck -0.500611 21.1852 10.0186
upperneck -2.61183 28.8611 -20.2685
head 3.72585 14.3631 -5.51096
rclavicle 1.70955e-014 7.95139e-016
rhumerus -39.0834 -34.9353 -10.5695
rradius 72.6709
rwrist -32.5993
rhand -49.3168 37.2029
rfingers 7.12502
rthumb -21.9332 8.42622
lclavicle 1.70955e-014 7.95139e-016
lhumerus -13.6397 4.18622 75.3643
lradius 77.6285
lwrist 23.7756
lhand -30.9479 13.5379
lfingers 7.12502
lthumb -4.23285 43.4756
rfemur -37.1649 -0.836241 10.8459
rtibia 66.5248
rfoot -29.3329 -3.96213
rtoes -12.528
lfemur -23.053 31.636 -13.3739
ltibia 57.3137
lfoot -25.1182 27.2992
ltoes 8.4974
752
root 18.2598 15.9366 -3.19479 -149.42 -73.0181 153.323
lowerback 16.8534 -1.25953 0.572847
upperback 10.0837 -2.39306 -0.218781
thorax 1.28029 -1.50428 -0.194385
lowerneck -0.726985 21.1745 9.93563
upperneck -2.34033 28.8656 -20.1221
head 3.80774 14.3423 -5.42689
rclavicle 1.66979e-014 -1.82882e-014
rhumerus -39.0434 -35.3942 -10.5766
rradius 72.1484
rwrist -32.8309
rhand -49.3649 37.4354
rfingers 7.12502
rthumb -21.9794 8.66414
lclavicle 1.66979e-014 -1.82882e-014
lhumerus -13.4619 4.10488 75.5851
lradius 77.5294
lwrist 23.5963
lhand -31.2864 13.1744
lfingers 7.12502
lthumb -4.55972 43.1053
rfemur -37.3359 -1.05611 10.6977
rtibia 66.7129
rfoot -29.3023 -3.99613
rtoes -13.6946
lfemur -23.3691 31.7556 -13.5915
ltibia 57.4899
lfoot -24.7223 27.3489
ltoes 7.2066
753
root 18.265 15.9204 -3.17618 -149.166 -73.3002 153.015
lowerback 17.0521 -1.17098 0.634425
upperback 10.1237 -2.27277 -0.119933
thorax 1.22411 -1.44697 -0.138228
lowerneck -0.761253 21.1016 10.0428
upperneck -2.1623 28.8 -20.2387
head 3.89237 14.2983 -5.46144
rclavicle -4.05521e-014 1.98785e-014
rhumerus -39.1986 -35.7619 -10.4362
rradius 71.7419
rwrist -32.7137
rhand -49.9025 38.3006
rfingers 7.12502
rthumb -22.4955 9.59089
lclavicle -4.05521e-014 1.98785e-014
lhumerus -13.1961 3.92609 75.8984
lradius 77.3992
lwrist 23.4083
lhand -31.0742 13.4842
lfingers 7.12502
lthumb -4.35475 43.4194
rfemur -37.3289 -1.27283 10.6635
rtibia 66.8481
rfoot -29.4286 -3.83947
rtoes -12.3881
lfemur -23.5549 31.7137 -13.6066
ltibia 57.7198
lfoot -24.8243 27.1937
ltoes 7.09694
754
root 18.2682 15.9119 -3.16501 -148.651 -73.4651 152.469
lowerback 17.1127 -1.11023 0.5684
upperback 10.1968 -2.21007 -0.176708
thorax 1.27182 -1.41951 -0.170415
lowerneck -0.668756 21.0746 10.3984
upperneck -2.11888 28.797 -20.5125
head 3.98609 14.2954 -5.56759
rclavicle 1.07344e-014 1.43125e-014
rhumerus -39.2626 -35.9237 -10.6252
rradius 71.466
rwrist -32.8225
rhand -50.7619 39.3923
rfingers 7.12502
rthumb -23.3202 10.7848
lclavicle 1.07344e-014 1.43125e-014
lhumerus -13.0297 3.85561 75.8446
lradius 77.4155
lwrist 23.559
lhand -30.5179 13.8613
lfingers 7.12502
lthumb -3.81755 43.8068
rfemur -37.3199 -1.33614 10.5267
rtibia 66.9581
rfoot -29.5962 -3.66364
rtoes -10.5935
lfemur -23.7231 31.6735 -13.733
ltibia 57.952
lfoot -24.8968 27.0013
ltoes 7.26258
755
root 18.2715 15.9043 -3.15358 -148.907 -73.7706 152.82
lowerback 17.0894 -1.12449 0.711434
upperback 10.2317 -2.21034 -0.115997
thorax 1.31975 -1.41558 -0.188848
lowerneck -0.658344 21.0938 10.4662
upperneck -2.06549 28.8366 -20.5637
head 4.02429 14.3128 -5.5778
rclavicle -4.65156e-014 4.29375e-014
rhumerus -38.9792 -36.0312 -10.9629
rradius 71.106
rwrist -33.3414
rhand -50.4049 38.8067
rfingers 7.12502
rthumb -22.9777 10.1562
lclavicle -4.65156e-014 4.29375e-014
lhumerus -13.071 4.05352 75.8201
lradius 77.4584
lwrist 23.6285
lhand -30.5867 14.3336
lfingers 7.12502
lthumb -3.884 44.2779
rfemur -37.3934 -1.38395 10.7558
rtibia 67.0327
rfoot -29.6406 -3.83114
rtoes -10.3948
lfemur -24.0236 31.7724 -13.5646
ltibia 58.1935
lfoot -24.7181 26.7412
ltoes 7.56447
756
root 18.2737 15.8948 -3.13651 -149.324 -74.2612 153.272
lowerback 17.2195 -1.14293 0.954888
upperback 10.2285 -2.19767 0.0972865
thorax 1.25108 -1.40532 -0.0995758
lowerneck -0.717195 21.0699 10.3657
upperneck -2.01378 28.8066 -20.5358
head 4.02621 14.2934 -5.55794
rclavicle 1.59028e-015 -1.59028e-015
rhumerus -38.4754 -36.3728 -11.1129
rradius 70.3936
rwrist -33.4235
rhand -49.9522 37.0271
rfingers 7.12502
rthumb -22.5432 8.32314
lclavicle 1.59028e-015 -1.59028e-015
lhumerus -13.177 4.21207 76.107
lradius 77.5623
lwrist 23.5116
lhand -31.0118 15.1365
lfingers 7.12502
lthumb -4.29451 45.073
rfemur -37.3458 -1.71896 11.0784
rtibia 67.0559
rfoot -29.7167 -3.74492
rtoes -9.71613
lfemur -24.2565 31.6497 -13.2524
ltibia 58.3993
lfoot -24.5306 26.4763
ltoes 7.30856
757
root 18.2728 15.8939 -3.11796 -149.106 -74.845 152.991
lowerback 17.3477 -1.25094 1.24686
upperback 10.2795 -2.30117 0.217564
thorax 1.23618 -1.45011 -0.118198
lowerneck -0.849272 21.0535 10.2677
upperneck -2.10466 28.7721 -20.6609
head 4.02198 14.2712 -5.57569
rclavicle 1.47101e-014 2.46493e-014
rhumerus -37.7098 -36.8794 -11.5129
rradius 69.5779
rwrist -33.2224
rhand -49.8132 35.8643
rfingers 7.12502
rthumb -22.4098 7.14422
lclavicle 1.47101e-014 2.46493e-014
lhumerus -13.2213 4.35734 76.248
lradius 77.7339
lwrist 23.2921
lhand -30.3868 15.3829
lfingers 7.12502
lthumb -3.69103 45.3307
rfemur -37.1034 -2.08236 11.2221
rtibia 67.0173
rfoot -29.882 -3.68484
rtoes -8.64261
lfemur -24.4321 31.3666 -13.0899
ltibia 58.5644
lfoot -23.9522 26.581
ltoes 4.92916
758
root 18.2704 15.8986 -3.10014 -148.472 -75.5477 152.362
lowerback 17.3496 -1.4379 1.62889
upperback 10.3315 -2.49339 0.248573
thorax 1.27877 -1.53027 -0.271118
lowerneck -0.881252 20.9043 10.9416
upperneck -2.26654 28.6107 -21.5961
head 4.20708 14.1785 -5.8982
rclavicle -8.34896e-015 1.51076e-014
rhumerus -37.5069 -37.4325 -11.9597
rradius 69.3921
rwrist -33.4005
rhand -49.2283 35.7036
rfingers 7.12502
rthumb -21.8483 6.91698
lclavicle -8.34896e-015 1.51076e-014
lhumerus -13.2281 4.48638 76.1032
lradius 77.8115
lwrist 23.2286
lhand -28.8459 14.6259
lfingers 7.12502
lthumb -2.20284 44.5943
rfemur -36.8562 -2.42967 11.3624
rtibia 66.9341
rfoot -29.988 -3.94972
rtoes -8.01645
lfemur -24.7567 31.0009 -13.0172
ltibia 58.7276
lfoot -23.4306 26.8041
ltoes 2.97227
759
root 18.2697 15.899 -3.08407 -147.953 -76.2736 151.991
lowerback 17.3058 -1.59099 1.98182
upperback 10.3283 -2.63797 0.311025
thorax 1.28701 -1.58597 -0.38225
lowerneck -0.996609 20.8109 11.2059
upperneck -2.29525 28.4979 -21.9624
head 4.29911 14.1096 -6.02172
rclavicle 3.33958e-014 5.56597e-015
rhumerus -37.623 -37.8525 -12.3269
rradius 69.3819
rwrist -33.5789
rhand -49.1817 36.211
rfingers 7.12502
rthumb -21.8035 7.41923
lclavicle 3.33958e-014 5.56597e-015
lhumerus -13.2617 4.54266 75.9132
lradius 77.8961
lwrist 23.5639
lhand -28.1557 13.7365
lfingers 7.12502
lthumb -1.53631 43.7107
rfemur -36.8095 -2.93859 11.6307
rtibia 66.8073
rfoot -29.7895 -4.52522
rtoes -9.77133
lfemur -25.2689 30.7262 -12.9387
ltibia 58.9433
lfoot -23.2525 26.7236
ltoes 2.68512
760
root 18.271 15.8942 -3.06982 -147.571 -76.99 151.79
lowerback 17.2114 -1.72028 2.10083
upperback 10.2731 -2.77878 0.539187
thorax 1.28071 -1.65379 -0.189378
lowerneck -0.689432 20.7605 11.0523
upperneck -2.60809 28.4077 -22.1666
head 4.15568 14.1009 -6.12498
rclavicle 2.22639e-014 7.95139e-016
rhumerus -37.0818 -37.9753 -12.8177
rradius 69.0343
rwrist -33.5382
rhand -49.6955 35.9419
rfingers 7.12502
rthumb -22.2968 7.20828
lclavicle 2.22639e-014 7.95139e-016
lhumerus -13.4426 4.78877 75.9704
lradius 78.0697
lwrist 23.7075
lhand -29.1551 13.6596
lfingers 7.12502
lthumb -2.50145 43.6247
rfemur -36.8656 -3.43306 11.9426
rtibia 66.75
rfoot -29.6057 -5.01555
rtoes -12.1026
lfemur -25.8087 30.6459 -12.8019
ltibia 59.1622
lfoot -23.2546 26.1554
ltoes 3.13152
761
root 18.2683 15.8902 -3.06086 -148.661 -77.9284 153.073
lowerback 16.9448 -1.75609 2.63216
upperback 10.2362 -2.74559 0.785968
thorax 1.37342 -1.61513 -0.243534
lowerneck -0.814848 20.7575 10.8421
upperneck -2.35526 28.3908 -21.5394
head 4.11371 14.0826 -5.92468
rclavicle -3.18055e-015 5.56597e-015
rhumerus -37.0259 -38.3959 -13.0446
rradius 68.6685
rwrist -33.4758
rhand -49.7076 34.6651
rfingers 7.12502
rthumb -22.3084 5.93285
lclavicle -3.18055e-015 5.56597e-015
lhumerus -13.4369 4.63086 76.0166
lradius 78.1272
lwrist 23.6628
lhand -30.6046 14.0746
lfingers 7.12502
lthumb -3.90135 44.0186
rfemur -36.8008 -3.7266 12.6802
rtibia 66.7304
rfoot -29.791 -5.08284
rtoes -11.4088
lfemur -26.3307 30.523 -12.1907
ltibia 59.4096
lfoot -23.3368 25.5739
ltoes 3.5372
762
root 18.2774 15.8873 -3.03666 -147.21 -77.6299 151.374
lowerback 17.2322 -1.40328 2.40524
upperback 10.2711 -2.31127 0.299598
thorax 1.25767 -1.3944 -0.684945
lowerneck -1.3678 20.7125 11.3044
upperneck -1.61236 28.3398 -20.5813
head 4.32096 13.9984 -5.63557
rclavicle 9.54166e-015 1.51076e-014
rhumerus -37.1502 -39.0225 -13.3801
rradius 67.7605
rwrist -33.3886
rhand -49.895 34.5429
rfingers 7.12502
rthumb -22.4884 5.83229
lclavicle 9.54166e-015 1.51076e-014
lhumerus -13.2106 3.74664 75.5429
lradius 78.0094
lwrist 23.9364
lhand -31.3316 14.2201
lfingers 7.12502
lthumb -4.60329 44.1501
rfemur -36.688 -3.53778 12.0403
rtibia 66.8377
rfoot -29.8158 -5.00403
rtoes -10.5068
lfemur -26.1367 30.7215 -12.702
ltibia 59.5185
lfoot -23.5386 25.5126
ltoes 2.87654
763
root 18.2834 15.8938 -3.011 -145.83 -77.8745 149.859
lowerback 17.4351 -1.3864 2.53015
upperback 10.276 -2.26634 0.0543119
thorax 1.14675 -1.35955 -1.01329
lowerneck -1.03449 20.4818 12.2274
upperneck -1.87021 28.0532 -21.2265
head 4.38252 13.8753 -5.98177
rclavicle 5.1684e-015 -6.36111e-015
rhumerus -35.6422 -39.6016 -14.3015
rradius 66.0627
rwrist -33.1287
rhand -50.5603 35.2009
rfingers 7.12502
rthumb -23.1268 6.56895
lclavicle 5.1684e-015 -6.36111e-015
lhumerus -13.2382 3.29499 75.2065
lradius 78.0412
lwrist 24.3886
lhand -31.6762 14.4523
lfingers 7.12502
lthumb -4.93607 44.3748
rfemur -36.5932 -3.82661 11.7546
rtibia 66.9133
rfoot -29.81 -5.09901
rtoes -10.2064
lfemur -26.2336 30.7576 -12.969
ltibia 59.6073
lfoot -23.2293 25.3981
ltoes 1.3332
764
root 18.2873 15.9041 -2.98878 -144.406 -78.2767 148.424
lowerback 17.4986 -1.43828 2.25685
upperback 10.2838 -2.36915 0.297786
thorax 1.13672 -1.43059 -0.585236
lowerneck -0.67259 20.375 12.2588
upperneck -2.28175 27.9249 -21.9767
head 4.31154 13.845 -6.2588
rclavicle 5.1684e-015 -4.6118e-014
rhumerus -35.85 -39.3221 -14.6171
rradius 66.7228
rwrist -33.8593
rhand -50.8491 35.3974
rfingers 7.12502
rthumb -23.4038 6.80055
lclavicle 5.1684e-015 -4.6118e-014
lhumerus -13.3964 3.75809 75.4871
lradius 78.1558
lwrist 24.3577
lhand -31.5708 14.6593
lfingers 7.12502
lthumb -4.83427 44.5842
rfemur -36.5954 -4.1329 11.5758
rtibia 66.972
rfoot -29.8219 -5.09779
rtoes -9.52534
lfemur -26.4737 30.7253 -13.1985
ltibia 59.6229
lfoot -23.0173 25.2287
ltoes 0.746592
765
root 18.2912 15.9113 -2.96928 -143.403 -78.5694 147.42
lowerback 17.5853 -1.46793 1.91877
upperback 10.2582 -2.44942 0.511867
thorax 1.08219 -1.49195 -0.153559
lowerneck -1.02046 20.4972 11.6093
upperneck -1.81238 28.108 -21.5575
head 4.37697 13.9006 -5.99882
rclavicle 3.26007e-014 -2.70347e-014
rhumerus -35.4935 -39.2533 -15.2178
rradius 66.9439
rwrist -34.1559
rhand -50.6794 35.355
rfingers 7.12502
rthumb -23.241 6.73742
lclavicle 3.26007e-014 -2.70347e-014
lhumerus -13.5612 4.47329 75.5436
lradius 78.1253
lwrist 23.9529
lhand -31.0387 14.2882
lfingers 7.12502
lthumb -4.3205 44.2241
rfemur -36.5872 -4.34326 11.4769
rtibia 66.9829
rfoot -29.812 -5.3377
rtoes -10.1079
lfemur -26.6573 30.7489 -13.3422
ltibia 59.6664
lfoot -23.1923 24.9095
ltoes 1.30442
